<svg id="Capa_1" enable-background="new 0 0 512 512" height="512" viewBox="0 0 512 512" width="512" xmlns="http://www.w3.org/2000/svg"><g><path d="m335.144 333.516c-4.142 0-7.5 3.358-7.5 7.5v11.579c0 4.142 3.358 7.5 7.5 7.5s7.5-3.358 7.5-7.5v-11.579c0-4.142-3.358-7.5-7.5-7.5z"/><path d="m455.658 333.516c-4.142 0-7.5 3.358-7.5 7.5v11.579c0 4.142 3.358 7.5 7.5 7.5s7.5-3.358 7.5-7.5v-11.579c0-4.142-3.358-7.5-7.5-7.5z"/><path d="m416.215 346.597c-3.123-2.722-7.861-2.396-10.581.726-5.411 6.208-15.039 6.226-20.465 0-2.722-3.123-7.459-3.448-10.581-.726-3.123 2.721-3.448 7.459-.726 10.581 11.4 13.08 31.693 13.065 43.08 0 2.721-3.122 2.395-7.86-.727-10.581z"/><path d="m73.953 117.978c25.905 0 46.98-21.075 46.98-46.98s-21.075-46.98-46.98-46.98-46.98 21.075-46.98 46.98 21.075 46.98 46.98 46.98zm0-78.96c17.634 0 31.98 14.346 31.98 31.98s-14.346 31.98-31.98 31.98-31.98-14.346-31.98-31.98 14.346-31.98 31.98-31.98z"/><path d="m465.017 63.499c-25.905 0-46.98 21.075-46.98 46.98s21.075 46.98 46.98 46.98 46.98-21.075 46.98-46.98-21.076-46.98-46.98-46.98zm0 78.959c-17.634 0-31.98-14.346-31.98-31.98s14.346-31.98 31.98-31.98 31.98 14.346 31.98 31.98-14.347 31.98-31.98 31.98z"/><path d="m309.03 48.783c0 18.67 15.189 33.859 33.859 33.859 18.669 0 33.858-15.189 33.858-33.859 0-18.669-15.189-33.858-33.858-33.858-18.67 0-33.859 15.189-33.859 33.858zm52.717 0c0 10.399-8.46 18.859-18.858 18.859-10.399 0-18.859-8.46-18.859-18.859 0-10.398 8.46-18.858 18.859-18.858 10.398 0 18.858 8.46 18.858 18.858z"/><path d="m510.595 275.107c8.096-36.647-19.816-71.302-57.269-71.302h-27.024c-1.737-38.007-36.235-66.766-74.41-60.819-4.035-15.433-12.703-29.408-24.91-39.955-35.717-30.86-90.993-23.983-117.672 15.868-37.639-24.056-88.098-3.392-97.792 40.39-49.38-5.219-91.326 35.776-87.427 84.999-13.796 3.277-24.091 15.693-24.091 30.476v22.12c0 15.235 10.933 27.958 25.364 30.753l31.771 123.853c6.886 26.84 31.047 45.585 58.755 45.585h337.435c37.53 0 65.348-34.73 57.269-71.301l-8.286-37.509c-5.466-24.745-5.466-50.905 0-75.65zm-271.922 206.968h-122.782c-20.857 0-39.043-14.11-44.226-34.313l-30.668-119.548h40.604c4.142 0 7.5-3.358 7.5-7.5s-3.358-7.5-7.5-7.5h-50.271c-9.005 0-16.33-7.326-16.33-16.33v-22.12c0-9.004 7.326-16.33 16.33-16.33h123.744c4.142 0 7.5-3.358 7.5-7.5s-3.358-7.5-7.5-7.5h-116.019c-3.572-42.321 34.78-77.023 77.173-68.249 4.368.906 8.564-2.188 8.987-6.635 3.852-40.569 51.498-58.499 81.444-32.996 3.661 3.118 9.28 2.029 11.509-2.235 19.417-37.134 67.965-45.759 99.007-18.938 11.542 9.973 19.183 23.716 21.515 38.697.693 4.454 5.136 7.295 9.472 6.058 30.735-8.785 61.262 13.37 63.127 44.669-136.56 0-134.209-.25-139.796.348-22.098 2.331-41.588 17.179-49.132 39.281h-37.287c-4.142 0-7.5 3.358-7.5 7.5s3.358 7.5 7.5 7.5h34.253c-.796 11.637 1.249 15.794 9.676 54.78h-117.402c-4.142 0-7.5 3.358-7.5 7.5s3.358 7.5 7.5 7.5h119.965c7.112 56.162-15.244 89.512-11.966 117.177 2.165 18.268 12.61 29.88 12.551 29.78 1.757 2.186 4.152 4.769 6.522 6.904zm59.614 0c-11.364-.032-20.632.058-22.908-.069-23.248-1.299-41.037-20.58-41.179-43.234-.046-7.289.808-8.338 9.335-47.318 14.932-67.682-12.088-108.083-9.04-134.121 3.787-31.884 35.153-38.073 33.614-37.438 6.751-1.535 11.018-1.069 30.178-1.09-15.684 14.132-22.693 35.425-18.08 56.302l7.017 31.761c.407 3.354 11.036 37.186 1.27 81.397l-8.287 37.509c-4.616 20.893 2.417 42.186 18.08 56.301zm189.375-90.575 8.286 37.509c6.025 27.274-14.748 53.066-42.622 53.066h-115.85c-13.3 0-25.704-5.947-34.032-16.316-14.19-17.667-8.589-36.646-8.59-36.75l8.286-37.508c5.935-26.863 5.935-55.26 0-82.121l-8.286-37.509c-5.269-23.851 9.979-46.77 32.865-51.974 8.542-1.944 125.607-1.091 125.607-1.091 27.931 0 48.635 25.848 42.622 53.066l-8.286 37.509c-5.934 26.86-5.934 55.257 0 82.119z"/></g></svg>