<svg id="Capa_1" enable-background="new 0 0 512 512" height="512" viewBox="0 0 512 512" width="512" xmlns="http://www.w3.org/2000/svg"><g><path d="m263.617 42.668c0-4.207-3.41-7.617-7.617-7.617s-7.617 3.41-7.617 7.617 3.41 7.617 7.617 7.617 7.617-3.41 7.617-7.617z"/><path d="m256 368.294c15.209 0 27.582-12.373 27.582-27.582s-12.373-27.582-27.582-27.582-27.583 12.374-27.583 27.583 12.374 27.581 27.583 27.581zm0-40.164c6.938 0 12.582 5.644 12.582 12.583 0 6.938-5.645 12.582-12.582 12.582-6.938 0-12.583-5.645-12.583-12.582 0-6.939 5.645-12.583 12.583-12.583z"/><path d="m206.633 395.101v41.318h-13.167c-21.736 0-39.419 17.683-39.419 39.419 0 17.19 13.985 31.175 31.175 31.175h141.555c17.19 0 31.175-13.985 31.175-31.175 0-21.736-17.683-39.419-39.419-39.419h-13.167v-41.318h142.134c35.565 0 64.5-28.934 64.5-64.499v-261.116c0-35.565-28.934-64.5-64.5-64.5h-273.908c-4.143 0-7.5 3.358-7.5 7.5s3.357 7.5 7.5 7.5h273.908c27.294 0 49.5 22.206 49.5 49.5v216.836h-45.36v-213.472c0-4.142-3.358-7.5-7.5-7.5h-376.281c-4.142 0-7.5 3.358-7.5 7.5v213.473h-45.359v-216.837c0-27.294 22.205-49.5 49.499-49.5h79.093c4.142 0 7.5-3.358 7.5-7.5s-3.358-7.5-7.5-7.5h-79.093c-35.565.001-64.499 28.935-64.499 64.5v261.115c0 35.565 28.934 64.499 64.499 64.499h142.134zm136.319 80.737c0 8.919-7.256 16.175-16.175 16.175h-141.554c-8.919 0-16.175-7.256-16.175-16.175 0-13.464 10.955-24.419 24.419-24.419h125.067c13.464 0 24.418 10.954 24.418 24.419zm-121.319-39.419v-41.317h68.733v41.317zm-146.274-356.069h361.281v205.973h-361.281zm-60.359 250.252v-29.279h482v29.279c0 27.294-22.205 49.499-49.5 49.499h-383.001c-27.294 0-49.499-22.205-49.499-49.499z"/><path d="m365.01 101.609h-44.793c-4.143 0-7.5 3.358-7.5 7.5s3.357 7.5 7.5 7.5h44.793c8.89 0 16.122 7.232 16.122 16.122v8.494c0 8.89-7.232 16.122-16.122 16.122-233.893 0-219.365.488-223.389-.939-6.254-2.219-10.752-8.178-10.752-15.183v-8.494c0-8.889 7.232-16.122 16.122-16.122h143.227c4.142 0 7.5-3.358 7.5-7.5s-3.358-7.5-7.5-7.5h-143.228c-17.161 0-31.122 13.961-31.122 31.122v8.494c0 11.221 5.97 21.071 14.899 26.548v80.355c0 13.327 10.842 24.17 24.17 24.17 10.123 0 18.807-6.258 22.4-15.106 5.908 4.667 13.357 7.463 21.452 7.463h114.421c19.124 0 34.682-15.563 34.682-34.692 0-6.907 0-51.229 0-57.615h17.117c17.161 0 31.122-13.961 31.122-31.122v-8.494c.001-17.162-13.961-31.123-31.121-31.123zm-200.903 146.519c0 5.057-4.114 9.17-9.17 9.17-5.057 0-9.17-4.113-9.17-9.17v-75.805c1.131.044.514.016 18.34.023zm168.785-18.166c0 10.858-8.829 19.692-19.682 19.692h-114.421c-10.853 0-19.682-8.834-19.682-19.692v-11.352h153.785zm0-26.352h-153.785v-31.263h153.785z"/></g></svg>