<svg id="Capa_1" enable-background="new 0 0 512 512" height="512" viewBox="0 0 512 512" width="512" xmlns="http://www.w3.org/2000/svg"><g><path d="m26.694 504.911h458.611c14.72 0 26.695-11.975 26.695-26.694v-31.032c0-12.115-8.116-22.365-19.194-25.615v-65.332c0-4.142-3.358-7.5-7.5-7.5s-7.5 3.358-7.5 7.5v64.252h-49.218c0-19.324 0-312.037 0-328.981h49.218v234.729c0 4.142 3.358 7.5 7.5 7.5s7.5-3.358 7.5-7.5v-235.808c11.078-3.25 19.194-13.5 19.194-25.615v-31.031c0-14.72-11.975-26.695-26.695-26.695h-458.611c-14.719 0-26.694 11.975-26.694 26.695v31.031c0 12.116 8.116 22.365 19.195 25.615v70.444c0 4.142 3.358 7.5 7.5 7.5s7.5-3.358 7.5-7.5v-69.365h49.218v245.825 83.156h-49.218v-229.616c0-4.142-3.358-7.5-7.5-7.5s-7.5 3.358-7.5 7.5v230.696c-11.079 3.25-19.195 13.499-19.195 25.615v31.032c0 14.719 11.975 26.694 26.694 26.694zm268.915-84.421v-30.456c6.592-2.885 13.185-2.753 19.647.432 21.069 10.38 47.384 4.602 56.358-18.191 4.606-11.699 12.981-18.854 25.797-18.395 5.597.2 11.11-.798 16.176-2.835v69.445zm-197.196-242.054c4.75-3.553 10.938-5.489 17.062-5.275 17.471.62 31.63-9.56 38.866-27.934 4.934-12.532 20.384-17.821 32.674-11.765 9.793 4.826 19.903 6.12 29.376 3.901v237.264c-9.467-2.215-19.576-.917-29.375 3.912-12.215 6.019-27.713.833-32.671-11.758-6.897-17.514-20.602-28.597-38.87-27.943-.101.004-1.522.054-1.421.051-5.811.205-11.261-1.526-15.641-4.924zm132.978-86.927h49.218v328.981h-49.218c0-7.516 0-313.955 0-328.981zm182.196 242.457c-4.38 3.398-9.838 5.132-15.642 4.925-18.373-.659-33.052 9.51-40.288 27.889-5.627 14.292-22.55 16.745-35.771 10.232-8.673-4.273-17.72-5.029-26.277-2.805v-236.864c9.487 2.225 19.598.936 29.375-3.883 12.186-6.005 27.704-.856 32.671 11.758 7.132 18.11 22.189 28.544 40.291 27.892 6.148-.219 11.501 1.52 15.641 5.052zm0-173.105c-4.942-1.998-10.413-2.944-16.175-2.741-15.912.566-22.998-11.283-25.799-18.397-8.069-20.49-32.928-29.735-53.258-19.717-7.862 3.874-15.643 4.415-22.746 1.652v-30.149h117.978zm-398.587-96.046v-31.031c0-6.449 5.246-11.695 11.694-11.695h458.611c6.449 0 11.695 5.246 11.695 11.695v31.031c0 6.448-5.245 11.693-11.692 11.694-.001 0-.001 0-.002 0-58.356 0-412.625 0-458.611 0-.001 0-.002 0-.003 0-6.447-.001-11.692-5.246-11.692-11.694zm201.391 26.694v30.182c-7.112 2.812-14.743 2.259-22.747-1.684-20.288-9.998-45.171-.821-53.261 19.724-3.42 8.686-10.412 18.94-24.375 18.439-6.099-.217-12.107.898-17.596 3.158v-69.819zm-117.978 259.534c6.364 2.556 11.871 3.026 17.595 2.775v.011c7.691-.271 18.178 2.703 24.378 18.448 8.042 20.421 32.864 29.766 53.258 19.717 8.013-3.948 15.644-4.505 22.746-1.696v30.192h-117.977zm-83.413 96.142c0-6.448 5.246-11.695 11.694-11.695h458.61c6.449 0 11.695 5.246 11.695 11.695v31.032c0 6.448-5.246 11.694-11.695 11.694h-458.61c-6.448 0-11.694-5.246-11.694-11.694z"/><path d="m156.772 232.995 11.949 3.202c-.976 1.266-1.562 2.847-1.562 4.569v13.502c0 4.142 3.358 7.5 7.5 7.5s7.5-3.358 7.5-7.5c-.03-14.164.064-13.452-.073-14.49 5.59 1.428 6.333 1.873 7.976 1.873 3.311 0 6.342-2.21 7.24-5.561 1.072-4.001-1.302-8.114-5.303-9.186l-31.345-8.399c-3.999-1.071-8.113 1.302-9.186 5.303-1.071 4.003 1.303 8.115 5.304 9.187z"/><path d="m351.346 218.506-31.346 8.4c-4.001 1.072-6.375 5.185-5.304 9.186.898 3.351 3.928 5.561 7.24 5.561 1.631 0 2.175-.392 7.976-1.874-.135 1.028-.043.306-.073 14.49 0 4.142 3.358 7.5 7.5 7.5s7.5-3.358 7.5-7.5v-13.502c0-1.722-.586-3.303-1.562-4.569l11.949-3.202c4.001-1.072 6.375-5.185 5.304-9.186s-5.186-6.377-9.184-5.304z"/></g></svg>