<svg id="Capa_1" enable-background="new 0 0 512 512" height="512" viewBox="0 0 512 512" width="512" xmlns="http://www.w3.org/2000/svg"><g><path d="m181.803 270.302c25.192 13.308 53.386 16.659 74.197-2.62 18.366 17.014 44.912 18.091 74.198 2.62 9.046-4.778 9.798-17.409 1.389-23.292-7.978-5.582-13.791-20.289-22.517-28.422-13.99-13.038-36.319-19.98-53.069-9.695-16.749-10.285-39.079-3.344-53.069 9.695-8.775 8.178-14.512 22.82-22.517 28.422-8.401 5.877-7.667 18.508 1.388 23.292zm31.354-40.741c9.043-8.429 26.752-15.789 37.805-5.768 2.858 2.592 7.217 2.592 10.075 0 11.054-10.021 28.762-2.661 37.805 5.768 6.769 6.309 12.309 20.35 22.442 28.462-32.092 16.194-50.006 5.747-59.428-6.03-2.999-3.749-8.712-3.752-11.713 0-9.423 11.777-27.338 22.222-59.428 6.03 10.094-8.081 15.735-22.21 22.442-28.462z"/><path d="m354.34 197.616c2.722-3.123 2.397-7.86-.726-10.582-3.122-2.722-7.86-2.398-10.582.726-7.236 8.302-20.113 8.323-27.368 0-2.722-3.123-7.46-3.448-10.582-.726-3.123 2.721-3.448 7.459-.726 10.582 13.227 15.176 36.771 15.161 49.984 0z"/><path d="m207.644 197.616c2.721-3.123 2.396-7.86-.727-10.582-3.123-2.721-7.86-2.396-10.582.727-7.234 8.302-20.112 8.323-27.367 0-2.722-3.123-7.46-3.448-10.582-.726-3.123 2.721-3.448 7.459-.726 10.582 13.227 15.176 36.771 15.16 49.984-.001z"/><path d="m372.592 285.248c-2.211 3.503-1.164 8.134 2.339 10.345 3.503 2.212 8.135 1.164 10.345-2.339 4.919-7.793 9.086-15.972 12.492-24.427 32.694 2.062 60.358-24.054 60.358-56.731 0-12.898-4.324-24.801-11.589-34.351-3.152-28.215-12.313-54.792-27.278-79.019-2.744-4.442-3.346-9.803-1.651-14.707 5.805-16.791 6.835-35.498 3.061-55.601-3.365-17.926-20.185-30.301-38.31-28.181-28.109 3.294-72.849 7.221-126.359 7.221-33.815 0-67.093 8.975-96.237 25.955-3.579 2.085-4.79 6.677-2.705 10.256 2.086 3.579 6.678 4.79 10.256 2.705 26.855-15.646 57.522-23.916 88.686-23.916 54.234 0 99.599-3.982 128.106-7.323 10.323-1.213 19.905 5.84 21.821 16.05 2.259 12.037 3.661 30.125-2.495 47.932-3.173 9.18-2.056 19.201 3.066 27.492 10.74 17.387 18.245 36.083 22.411 55.784-9.743-5.424-20.496-7.683-30.982-7.051-7.737-19.356-19.477-37.084-34.822-52.172-8.894-8.745-19.854-14.911-31.695-17.832-61.754-15.231-89.419 45.989-167.522 19.864-8.151-2.727-17.116-.268-22.841 6.267-11.132 12.707-20.349 27.42-26.927 43.875-10.704-.644-21.435 1.707-31.032 7.049 8.193-38.748 29.161-73.49 60.259-99.278 3.189-2.644 3.63-7.373.986-10.561-2.646-3.19-7.374-3.629-10.561-.986-38.6 32.009-62.796 76.754-68.32 126.187-7.26 9.548-11.58 21.447-11.58 34.34 0 32.57 27.52 58.715 60.201 56.742 12.738 31.88 35.658 57.533 62.892 74.06-13.265 10.339-33.195 21.777-54.19 19.118-19.209-2.437-36.809 11.214-39.241 30.419-2.438 19.248 11.167 36.804 30.418 39.241 4.876.618 9.81.929 14.766.941-8.945 23.714 3.967 49.682 27.768 57.165 67.162 21.112 21.286 6.691 64.253 20.204 11.923 3.749 24.624 2.192 35.238-4.036 6.768 3.979 14.445 6.043 22.201 6.043 9.515 0 8.86-.68 77.334-22.211 23.749-7.467 36.707-33.508 27.759-57.187 5.417.08 10.765-.143 16.891-.919 9.303-1.178 17.591-5.909 23.336-13.321 18.986-24.491-1.029-60.29-32.159-56.339-21.477 2.72-41.801-9.241-55.218-19.925 10.639-6.616 20.552-14.602 29.525-23.87 2.881-2.976 2.804-7.724-.172-10.606-2.977-2.882-7.724-2.804-10.606.172-17.958 18.549-40.058 31.222-63.801 37.524-132.607 35.13-226.932-123.259-138.736-223.957 1.726-1.97 4.394-2.731 6.8-1.925 84.301 28.197 114.326-32.931 168.688-19.526 11.472 2.83 19.594 8.515 27.728 16.969 43.598 45.615 50.74 114.992 17.045 168.377zm-43.654 121.239c-65.847 20.699-66.935 20.595-72.938 24.096-7.14-4.185-12.318-4.725-35.675-12.383-.001 0-.001 0-.002 0-1.462-.46 6.506 2.045-37.249-11.709 1.331-18.52 7.551-37.527 18.959-51.391 3.573 1.346 7.198 2.556 10.87 3.629.726 23.735 20.248 42.824 44.156 42.824 24.139 0 43.808-19.458 44.174-43.512 2.936-.912 5.84-1.914 8.711-3.003 11.649 14.067 17.696 33.24 18.994 51.449zm-43.047-44.556c-2.199 13.933-14.291 24.622-28.833 24.622-14.389 0-26.38-10.465-28.76-24.184 18.973 3.454 38.656 3.323 57.593-.438zm-170.052 54.862c-11.024-1.396-18.819-11.448-17.423-22.475 1.389-10.966 11.442-18.818 22.475-17.423 23.843 3.023 45.726-7.956 61.127-19.054-8.068 14.115-12.566 30.261-13.846 46.528-11.377.362-21.901 5.203-29.517 12.817-7.657.689-15.318.557-22.816-.393zm32.061 12.481c6.463-7.451 16.499-11.114 26.2-9.555h.002c2.844.456 2.534.473 34.565 10.545l-17.229 54.78-30.453-9.573c-19.81-6.229-26.53-30.684-13.085-46.197zm77.34 66.401-19.493-6.132 17.229-54.78 19.494 6.13c21.863 6.871 27.295 35.635 9.175 49.908-7.209 5.68-17.009 7.828-26.405 4.874zm61.521 0c-6.106 1.92-12.604 1.713-18.481-.438 12.031-15.35 12.757-37.519.004-53.893 2.283-.833-.799.233 20.738-6.582l17.229 54.78zm64.254-20.205-30.454 9.573c-3.561-11.321-13.363-42.487-17.229-54.78 3.857-1.213-11.281 3.547 30.455-9.576 15.071-4.759 31.231 3.615 36.003 18.776 4.749 15.106-3.674 31.259-18.775 36.007zm42.21-98.575c17.803-2.245 29.305 18.226 18.419 32.268-3.291 4.245-8.037 6.955-13.366 7.63-8.283 1.049-16.731 1.103-25.157.164-7.699-7.586-18.089-12.229-29.292-12.589-1.35-17.163-6.402-34.558-15.563-49.383 13.991 10.826 41.418 24.894 64.959 21.91zm-324.352-164.8c0-22.739 18.151-40.982 40.154-41.817-7.473 26.291-7.944 55.657-.032 83.636-22.278-.913-40.122-19.321-40.122-41.819zm334.036 41.824c7.491-26.114 8.091-55.372.105-83.631 22.372.93 40.112 19.403 40.112 41.807.001 22.531-17.893 40.961-40.217 41.824z"/></g></svg>