<svg id="Capa_1" enable-background="new 0 0 512 512" height="512" viewBox="0 0 512 512" width="512" xmlns="http://www.w3.org/2000/svg"><g><path d="m177.372 196.239c-4.142 0-7.5 3.358-7.5 7.5v15.108c0 4.142 3.358 7.5 7.5 7.5s7.5-3.358 7.5-7.5v-15.108c0-4.142-3.358-7.5-7.5-7.5z"/><path d="m334.621 226.347c4.142 0 7.5-3.358 7.5-7.5v-15.108c0-4.142-3.358-7.5-7.5-7.5s-7.5 3.358-7.5 7.5v15.108c0 4.142 3.358 7.5 7.5 7.5z"/><path d="m255.996 235.341c10.112 0 19.729-4.379 26.383-12.016 2.722-3.123 2.396-7.86-.727-10.582-3.122-2.721-7.86-2.395-10.581.727-7.969 9.144-22.158 9.171-30.149 0-2.722-3.123-7.459-3.448-10.582-.727-3.123 2.722-3.448 7.459-.727 10.582 6.656 7.636 16.272 12.016 26.383 12.016z"/><path d="m468.26 179.102c-8.143-47.792-32.603-91.914-69.068-124.448-3.091-2.758-7.832-2.487-10.59.603-2.758 3.091-2.487 7.832.603 10.589 29.834 26.618 51.039 61.555 60.875 99.816-7.957-3.607-16.82-5.155-24.831-4.764-9.376-15.725-28.631-23.84-47.195-18.213-60.986 18.486-138.204 10.033-185.661-26.804-6.774-5.258-16.518-4.384-22.181 1.99-16.032 18.04-40.868 29.884-64.122 37.076-4.289 1.326-8.793 3.599-12.674 6.654-10.828-1.82-21.955-.27-31.509 4.064 22.555-87.892 102.194-150.665 194.089-150.665 39.285 0 77.347 11.421 110.072 33.028 3.456 2.282 8.109 1.33 10.391-2.126 2.282-3.457 1.33-8.109-2.126-10.391-35.184-23.232-76.104-35.511-118.337-35.511-105.713 0-194.856 76.898-212.262 179.101-8.601 9.638-13.841 22.334-13.841 36.237 0 30.413 25.029 55.022 55.432 54.477 16.009 50.153 53.445 89.653 98.763 109.604-9.013 6.28-21.002 16.427-31.941 31.499-2.434 3.352-1.688 8.042 1.664 10.475s8.042 1.688 10.476-1.664c14.531-20.021 31.302-30.296 37.498-33.636 6.754 2.145 13.647 3.888 20.651 5.216v9.656c0 9.766 4.196 18.569 10.877 24.708l-15.024 71.327h-26.628v-37.261c0-4.142-3.358-7.5-7.5-7.5s-7.5 3.358-7.5 7.5v37.261h-37.63c.799-19.498 4.738-37.485 11.741-53.565 1.654-3.798-.084-8.217-3.882-9.871s-8.217.084-9.871 3.881c-8.72 20.022-13.141 42.582-13.141 67.054 0 4.142 3.358 7.5 7.5 7.5h271.097c14.104 0 25.578-11.475 25.578-25.579 0-8.506-2.501-16.433-6.791-23.106 7.951-4.049 13.413-12.309 13.413-21.826v-32.643c0-10.884-7.141-20.127-16.982-23.303v-30.353c0-13.558-8.349-25.198-20.174-30.063 12.96-16.686 22.775-35.412 29.122-55.314 47.449.9 73.063-55.473 41.619-90.71zm-37.494 75.605c5.76-25.676 5.77-52.901.004-78.725 20.347 1.609 36.33 18.694 36.33 39.357.001 20.713-16.028 37.753-36.334 39.368zm-372.328-69.116c6.545-5.717 14.854-9.205 23.78-9.683-.026.057-.633 1.508-.785 1.902-4.293 11.107-7.498 44.404-.215 76.896-34.528-2.753-49.182-46.083-22.78-69.115zm35.776 2.01c1.492-8.766 7.946-15.739 16.309-18.323 53.022-16.397 69.259-40.806 71.307-41.736.412-.186.955-.13 1.366.189 51.89 40.278 134.512 48.921 199.21 29.311 12.8-3.878 26.397 2.562 31.57 14.727 5.468 12.863 9.162 49.132 1.913 80.613-6.019 26.041-18.346 50.352-36.167 70.784-11.694 1.993-22.245 10.392-26.028 24.041-64.559 47.951-155.098 42.231-213.241-15.488-38.867-38.586-55.07-92.24-46.239-144.118zm248.632 203.994c-5.369-5.057-10.491-9.063-14.905-12.142 8.545-3.759 16.817-8.208 24.758-13.326v19.416c-3.761 1.214-7.128 3.312-9.853 6.052zm-68.288 1.911v7.458c0 7.014-3.913 13.129-9.668 16.285-12.24 6.745-27.455-2.17-27.455-16.285v-7.466c12.097 1.243 24.583 1.288 37.123.008zm-40.94 103.494 13.414-63.689c5.615 1.558 11.934 1.651 17.928 0l13.414 63.689zm60.085 0-15.023-71.328c6.681-6.139 10.877-14.941 10.877-24.708v-9.628c7.025-1.324 13.939-3.068 20.718-5.219 4.585 2.461 14.759 8.605 25.635 19.672-.364 2.914-.105 3.58-.194 35.699 0 9.289 5.295 17.684 13.37 21.813-6.057 9.422-9.124 23.441-4.457 33.699zm108.772 0h-34.557c-5.704 0-10.576-4.583-10.576-10.659.07-22.864 26.404-36.046 44.721-22.071 6.674 5.094 10.991 13.126 10.991 22.151-.001 5.833-4.746 10.579-10.579 10.579zm17.2-55.511c0 5.229-4.254 9.483-9.482 9.483h-.919c-14.646-9.995-33.86-9.753-48.153 0-.729-.008-1.172.024-1.887-.049-4.764-.485-8.514-4.52-8.514-9.434.018-33.96-.128-33.198.263-34.821.987-4.191 4.754-7.304 9.22-7.304h49.992c5.229 0 9.482 4.254 9.482 9.482v32.643zm-16.983-86.298v29.173h-34.992c.107-29.951-.786-32.091 2.069-37.411 3.077-5.715 9.067-9.258 15.427-9.258 9.648 0 17.496 7.848 17.496 17.496z"/></g></svg>