<svg id="Capa_1" enable-background="new 0 0 512 512" height="512" viewBox="0 0 512 512" width="512" xmlns="http://www.w3.org/2000/svg"><g><path d="m246.069 420.52h19.861c13.025 0 23.621-10.596 23.621-23.621v-28.367h28.367c13.024 0 23.621-10.596 23.621-23.621v-19.861c0-13.025-10.596-23.621-23.621-23.621h-28.367v-28.367c0-13.025-10.596-23.621-23.621-23.621h-19.861c-13.024 0-23.621 10.596-23.621 23.621v28.367h-28.367c-13.024 0-23.621 10.596-23.621 23.621v19.861c0 13.024 10.596 23.621 23.621 23.621h28.367v28.367c.001 13.024 10.597 23.621 23.621 23.621zm-51.987-66.988c-4.753 0-8.621-3.867-8.621-8.621v-19.861c0-4.754 3.867-8.621 8.621-8.621h35.867c4.142 0 7.5-3.358 7.5-7.5v-35.867c0-4.753 3.867-8.621 8.621-8.621h19.861c4.754 0 8.621 3.868 8.621 8.621v35.867c0 4.142 3.358 7.5 7.5 7.5h35.867c4.753 0 8.621 3.867 8.621 8.621v19.861c0 4.753-3.867 8.621-8.621 8.621h-35.867c-4.142 0-7.5 3.358-7.5 7.5v35.867c0 4.753-3.867 8.621-8.621 8.621h-19.861c-4.753 0-8.621-3.868-8.621-8.621v-35.867c0-4.142-3.358-7.5-7.5-7.5z"/><path d="m181.226 207.793v-15.81c0-4.142-3.358-7.5-7.5-7.5s-7.5 3.358-7.5 7.5v15.81c0 4.142 3.358 7.5 7.5 7.5s7.5-3.357 7.5-7.5z"/><path d="m345.774 207.793v-15.81c0-4.142-3.358-7.5-7.5-7.5s-7.5 3.358-7.5 7.5v15.81c0 4.142 3.358 7.5 7.5 7.5s7.5-3.357 7.5-7.5z"/><path d="m256 224.705c10.48 0 20.447-4.539 27.345-12.454 2.722-3.123 2.396-7.86-.726-10.582s-7.861-2.396-10.582.726c-4.049 4.646-9.894 7.31-16.037 7.31-6.144 0-11.989-2.664-16.038-7.31-2.722-3.123-7.459-3.447-10.582-.726s-3.448 7.459-.726 10.582c6.899 7.915 16.866 12.454 27.346 12.454z"/><path d="m54.667 455.648v11.438c0 20.661 16.809 37.471 37.47 37.471h40.752c20.661 0 37.47-16.81 37.47-37.471v-10.97h171.281v10.97c0 20.661 16.809 37.471 37.47 37.471h40.752c20.661 0 37.47-16.81 37.47-37.471v-11.438c30.754-3.717 54.668-29.96 54.668-61.698v-164.303c0-4.142-3.358-7.5-7.5-7.5s-7.5 3.358-7.5 7.5v164.303c0 26.008-21.159 47.167-47.167 47.167-21.63 0-367.378 0-387.667 0-26.007-.001-47.166-21.159-47.166-47.167v-63.643c0-4.142-3.358-7.5-7.5-7.5s-7.5 3.358-7.5 7.5v63.643c0 31.738 23.914 57.981 54.667 61.698zm387.666.468v10.97c0 12.391-10.08 22.471-22.47 22.471h-40.752c-12.39 0-22.47-10.08-22.47-22.471v-10.97zm-286.974 0v10.97c0 12.391-10.08 22.471-22.47 22.471h-40.752c-12.39 0-22.47-10.08-22.47-22.471v-10.97z"/><path d="m7.5 307.807c4.142 0 7.5-3.358 7.5-7.5v-167.612c0-26.008 21.159-47.167 47.167-47.167h64.311v56.107c0 4.142 3.358 7.5 7.5 7.5h244.046c4.142 0 7.5-3.358 7.5-7.5v-56.106h64.311c26.008 0 47.167 21.159 47.167 47.167v66.952c0 4.142 3.358 7.5 7.5 7.5s7.5-3.358 7.5-7.5v-66.952c0-34.279-27.888-62.167-62.167-62.167h-64.311v-15.625c0-26.17-21.291-47.461-47.461-47.461h-164.125c-26.17 0-47.461 21.291-47.461 47.461v15.625h-64.31c-34.279 0-62.167 27.888-62.167 62.166v167.611c0 4.143 3.358 7.501 7.5 7.501zm299.937-173.671h-102.874v-48.607h102.874zm-165.96-79.232c0-17.899 14.562-32.461 32.461-32.461h164.124c17.899 0 32.461 14.562 32.461 32.461v79.232h-48.086v-56.107c0-4.142-3.358-7.5-7.5-7.5h-117.874c-4.142 0-7.5 3.358-7.5 7.5v56.107h-48.086z"/></g></svg>