<svg id="Capa_1" enable-background="new 0 0 512 512" height="512" viewBox="0 0 512 512" width="512" xmlns="http://www.w3.org/2000/svg"><g><path d="m255.995 199.185c-15.409 0-27.946 13.628-27.946 30.379s12.537 30.38 27.946 30.38 27.946-13.628 27.946-30.38-12.537-30.379-27.946-30.379zm0 45.761c-7.14 0-12.948-6.9-12.948-15.382 0-8.481 5.809-15.381 12.948-15.381 7.14 0 12.948 6.9 12.948 15.381s-5.808 15.382-12.948 15.382z"/><path d="m323.693 215.874c0-5.315 4.325-9.639 9.64-9.639s9.64 4.324 9.64 9.639c0 4.141 3.357 7.499 7.499 7.499s7.499-3.357 7.499-7.499c0-13.585-11.052-24.637-24.637-24.637s-24.637 11.052-24.637 24.637c0 4.141 3.357 7.499 7.499 7.499 4.14 0 7.497-3.357 7.497-7.499z"/><path d="m180.134 191.238c-13.585 0-24.637 11.052-24.637 24.637 0 4.141 3.357 7.499 7.499 7.499 4.141 0 7.499-3.357 7.499-7.499 0-5.315 4.325-9.639 9.64-9.639s9.64 4.324 9.64 9.639c0 4.141 3.357 7.499 7.499 7.499 4.141 0 7.499-3.357 7.499-7.499-.001-13.585-11.053-24.637-24.639-24.637z"/><path d="m479.05 197.421v-121.344c0-24.735-10.777-48.149-29.567-64.237-18.439-15.787-45.205-15.786-63.643 0-12.786 10.948-31.348 10.947-44.135 0-18.439-15.787-45.205-15.786-63.642 0-12.787 10.948-31.349 10.947-44.135 0-18.44-15.787-45.205-15.786-63.643 0-12.786 10.948-31.349 10.948-44.135 0-18.44-15.787-45.205-15.786-63.643 0-18.79 16.087-29.566 39.5-29.566 64.236v121.344c-19.661 37.182 7.956 82.447 50.363 81.514 14.267 44.492 45.351 81.085 84.483 102.937-13.552 10.045-35.082 29.923-48.204 61.88-.001.003-.002.006-.003.009-7.634 18.61-11.506 39.047-11.506 60.742 0 4.141 3.357 7.499 7.499 7.499h283.339c4.141 0 7.499-3.357 7.499-7.499 0-15.806-2.075-30.993-6.161-45.263 6.624-2.572 12.834-6.514 18.173-11.849 0 0 .001-.001.001-.001 20.612-20.612 20.612-54.15 0-74.762l-10.3-10.3c8.755-5.063 14.663-14.523 14.663-25.343 0-8.906-4.004-16.89-10.301-22.261 6.676-11.366 12.058-23.362 16.083-35.789 42.396 1.013 70.205-44.209 50.481-81.513zm-46.296 66.433c6.2-26.974 6.041-54.147-.5-81.071 21.198 1.249 38.224 18.875 38.224 40.546-.001 21.426-16.672 39.031-37.724 40.525zm-384.815-187.778c0-20.349 8.865-39.61 24.322-52.844 12.786-10.948 31.348-10.948 44.135 0 18.44 15.787 45.205 15.786 63.643 0 12.786-10.948 31.348-10.948 44.135 0 18.439 15.787 45.204 15.787 63.643 0 12.786-10.948 31.348-10.947 44.135 0 18.438 15.787 45.204 15.787 63.643 0 12.786-10.948 31.348-10.947 44.135 0 15.457 13.234 24.322 32.495 24.322 52.844v103.426c-10.479-8.154-22.898-12.145-36.351-11.757-13.932-35.672-50.858-57.134-88.923-50.844-19.647 3.257-45.104 13.538-65.843 28.33-8.869 6.325-20.396 7.117-29.919 2.38-5.74-2.855-25.82-20.388-64.178-29.597-39.182-9.407-79.747 11.504-94.621 49.729-12.936-.454-25.692 3.51-36.278 11.759zm5.29 118.755c6.79-6.906 16.125-11.397 26.467-12.046-6.355 26.397-6.727 53.731-.521 81.064-33.193-2.405-50.582-44.105-25.946-69.018zm78.422 259.267h41.988v42.904h-50.397c.696-15.161 3.514-29.545 8.409-42.904zm56.986 42.904v-50.403c0-4.141-3.357-7.499-7.499-7.499h-42.895c14.636-28.32 35.882-43.925 44.874-49.601 36.556 16.049 76.748 18.99 113.262 10.616 50.901 50.9 50.793 51.873 60.184 56.749 8.876 4.647 18.928 6.7 29.074 5.799 3.177 10.874 5.054 22.375 5.606 34.339zm143.756-173.512c19.898 0 29.105 14.158 32.007 16.322.966 9.772 6.808 18.811 16.439 23.536l-50.005 50.013c-27.502-27.528-26.659-26.406-29.127-29.81-17.997-24.871-.248-60.061 30.686-60.061zm61.133-.772c7.781 0 14.263 6.329 14.263 14.263 0 7.85-6.374 14.236-14.218 14.261l-.059.002c-7.866-.007-14.25-6.435-14.248-14.258l.002-.076c.037-7.705 6.381-14.192 14.26-14.192zm14.295 114.063c-14.656 14.648-38.705 14.853-53.564.001l-12.817-12.817c11.307-11.309 42.603-42.61 53.553-53.562l12.827 12.827c14.763 14.765 14.763 38.788.001 53.551zm-39.663-114.355c-44.277-40.933-110.615 12.975-82.065 64.495-122.847 22.7-224.897-93.806-189.546-208.982 0-.001 0-.001 0-.002 10.39-33.879 45.236-53.395 78.789-45.338 20.187 4.846 38.699 13.208 55.023 24.853 15.193 10.839 35.806 11.03 51.284-.009 18.658-13.307 40.914-22.238 58.058-25.496 32.85-6.221 65.673 13.483 75.688 46.014 0 .001.001.003.001.005v.001c12.814 41.476 7.916 89.433-16.477 130.25-12.093-2.259-24.474 3.306-30.755 14.209z"/><path d="m350.317 236.488c-17.437 0-31.623 14.186-31.623 31.623s14.186 31.623 31.623 31.623 31.623-14.186 31.623-31.623-14.186-31.623-31.623-31.623zm0 48.247c-9.167 0-16.625-7.458-16.625-16.625s7.458-16.625 16.625-16.625 16.625 7.458 16.625 16.625-7.458 16.625-16.625 16.625z"/></g></svg>