<svg id="Capa_1" enable-background="new 0 0 512 512" height="512" viewBox="0 0 512 512" width="512" xmlns="http://www.w3.org/2000/svg"><g><path d="m202 178.472c-12.973 0-23.528 10.554-23.528 23.528 0 12.973 10.555 23.527 23.528 23.527s23.527-10.554 23.527-23.527c0-12.974-10.554-23.528-23.527-23.528zm0 32.055c-4.702 0-8.528-3.825-8.528-8.527 0-4.703 3.826-8.528 8.528-8.528s8.527 3.825 8.527 8.528c0 4.702-3.825 8.527-8.527 8.527z"/><path d="m310 286.472c-12.973 0-23.528 10.554-23.528 23.528 0 12.973 10.555 23.527 23.528 23.527s23.527-10.554 23.527-23.527c0-12.974-10.554-23.528-23.527-23.528zm0 32.055c-4.702 0-8.528-3.825-8.528-8.527 0-4.703 3.826-8.528 8.528-8.528s8.527 3.825 8.527 8.528c0 4.702-3.825 8.527-8.527 8.527z"/><path d="m256 512c141.484 0 256-114.497 256-256 0-141.483-114.496-256-256-256-24.619 0-49.005 3.508-72.48 10.425-3.973 1.171-6.245 5.341-5.074 9.314s5.338 6.245 9.314 5.074c22.098-6.511 45.057-9.813 68.24-9.813 133.194 0 241 107.788 241 241 0 133.193-107.788 241-241 241-133.193 0-241-107.788-241-241 0-96.403 57.232-183.33 145.805-221.456 3.805-1.638 5.561-6.049 3.923-9.854s-6.05-5.561-9.854-3.923c-94.082 40.497-154.874 132.832-154.874 235.233 0 141.483 114.497 256 256 256z"/><path d="m358.581 405.035c-3.408 2.354-4.264 7.024-1.91 10.433 2.353 3.408 7.023 4.264 10.433 1.91 53.159-36.708 84.896-97.036 84.896-161.378 0-41.469-12.856-81.139-37.179-114.721-2.706-3.735-8.117-4.165-11.377-.904l-263.069 263.069c-3.261 3.261-2.831 8.672.904 11.377 33.583 24.323 73.253 37.179 114.721 37.179 29.522 0 57.925-6.437 84.419-19.132 3.736-1.79 5.313-6.269 3.523-10.004s-6.268-5.313-10.004-3.523c-55.615 26.649-122.808 23.485-176.585-11.66l41.075-41.075c9.117-.24 17.728 4.135 22.901 11.803 16.544 24.528 52.748 24.602 69.343 0 6.029-8.938 16.765-13.387 27.386-11.324 29.01 5.633 54.691-19.861 49.02-49.064-2.055-10.584 2.393-21.319 11.332-27.349 11.543-7.787 18.435-20.748 18.435-34.671 0-13.924-6.891-26.886-18.435-34.672-7.669-5.173-12.044-13.786-11.803-22.901l41.074-41.075c19.209 29.392 29.319 63.313 29.319 98.647 0 59.414-29.315 115.127-78.419 149.035zm11.44-171.271c7.513 5.068 11.822 13.173 11.822 22.236s-4.309 17.168-11.823 22.236c-13.938 9.402-20.873 26.14-17.66 42.681 3.626 18.675-12.714 35.079-31.48 31.436-16.5-3.204-33.242 3.73-42.644 17.668-10.584 15.691-33.764 15.875-44.472 0-5.432-8.053-13.296-13.786-22.195-16.557l141.895-141.895c2.77 8.899 8.503 16.763 16.557 22.195z"/><path d="m370.72 97.178c-33.581-24.322-73.251-37.178-114.72-37.178-108.075 0-196 87.925-196 196 0 41.468 12.856 81.137 37.178 114.72 2.708 3.738 8.117 4.165 11.377.904l263.068-263.068c3.263-3.262 2.832-8.673-.903-11.378zm-228.741 181.057c-15.691-10.584-15.874-33.763 0-44.472 13.938-9.401 20.873-26.14 17.661-42.681-3.62-18.643 12.686-35.083 31.48-31.436 16.501 3.205 33.243-3.73 42.644-17.668 10.585-15.692 33.764-15.874 44.472 0 5.433 8.053 13.295 13.786 22.194 16.556l-141.894 141.896c-2.771-8.899-8.504-16.763-16.557-22.195zm171.593-132.84c-9.112.24-17.728-4.135-22.901-11.803-16.544-24.528-52.748-24.602-69.343 0-6.03 8.939-16.764 13.387-27.386 11.324-29.007-5.634-54.691 19.861-49.02 49.064 2.055 10.584-2.393 21.319-11.332 27.349-24.527 16.544-24.601 52.749 0 69.343 7.669 5.172 12.043 13.785 11.803 22.9l-41.075 41.075c-19.208-29.393-29.318-63.313-29.318-98.647 0-99.804 81.196-181 181-181 35.334 0 69.255 10.109 98.647 29.319z"/></g></svg>