<svg id="Capa_1" enable-background="new 0 0 512 512" height="512" viewBox="0 0 512 512" width="512" xmlns="http://www.w3.org/2000/svg"><g><path d="m256 82.463c6.05 0 10.954-4.904 10.954-10.954s-4.904-10.954-10.954-10.954-10.954 4.904-10.954 10.954 4.904 10.954 10.954 10.954z"/><path d="m196.46 364.473v10c0 4.142 3.358 7.5 7.5 7.5s7.5-3.358 7.5-7.5v-10c0-4.142-3.358-7.5-7.5-7.5s-7.5 3.358-7.5 7.5z"/><path d="m308.04 381.972c4.142 0 7.5-3.358 7.5-7.5v-10c0-4.142-3.358-7.5-7.5-7.5s-7.5 3.358-7.5 7.5v10c0 4.142 3.358 7.5 7.5 7.5z"/><path d="m256 387.925c7.426 0 14.487-3.216 19.374-8.823 2.722-3.123 2.396-7.86-.726-10.582-3.123-2.722-7.861-2.396-10.582.726-2.038 2.337-4.978 3.678-8.066 3.678s-6.028-1.341-8.066-3.678c-2.722-3.123-7.459-3.448-10.582-.726-3.123 2.721-3.448 7.459-.726 10.582 4.887 5.607 11.948 8.823 19.374 8.823z"/><path d="m43.298 33.63v64.973c0 4.142 3.358 7.5 7.5 7.5s7.5-3.358 7.5-7.5v-64.973c0-10.272 8.357-18.63 18.63-18.63h84.716c10.273 0 18.63 8.357 18.63 18.63v32.79c0 41.779 33.519 76.202 74.718 76.735 41.985.544 76.733-33.224 76.733-75.715v-33.81c0-10.272 8.357-18.63 18.63-18.63h84.716c10.273 0 18.63 8.357 18.63 18.63v158.568h-395.403v-63.595c0-4.142-3.358-7.5-7.5-7.5s-7.5 3.358-7.5 7.5v305.287c0 43.07 35.04 78.11 78.11 78.11h269.184c43.07 0 78.11-35.04 78.11-78.11v-53.19c0-4.142-3.358-7.5-7.5-7.5s-7.5 3.358-7.5 7.5v45.689h-113.179c13.924-28 10.223-61.144-.607-90.11-7.618-20.374-19.373-40.957-35.116-61.544h148.902v75.965c0 4.142 3.358 7.5 7.5 7.5s7.5-3.358 7.5-7.5c0-13.946 0-296.888 0-317.07 0-18.543-15.086-33.63-33.63-33.63h-84.716c-15.965 0-29.358 11.186-32.777 26.13h-123.158c-3.419-14.944-16.811-26.13-32.777-26.13h-84.716c-18.544 0-33.63 15.086-33.63 33.63zm211.749 210.13c.461-.45 1.315-.575 1.906 0 117.023 113.799 89.821 213.995-.953 213.995-39.24 0-71.126-19.466-77.461-58.347-9-55.568 36.118-116.371 76.508-155.648zm-82.964 92.52c-10.863 29.054-14.463 62.243-.606 90.11h-113.179v-151.654h148.902c-15.744 20.587-27.499 41.17-35.117 61.544zm281.177 105.11c-3.721 31.276-30.406 55.61-62.667 55.61h-269.185c-32.261 0-58.946-24.334-62.667-55.61h122.382c18.229 22.333 46.282 31.365 74.877 31.365 28.606 0 56.654-9.039 74.878-31.365zm-160.641-181.654c-5.047-5.876-23.035-25.703-27.763-28.771-4.495-2.917-10.052-3.404-14.901-1.459-3.345 1.341-5.478 3.592-5.378 3.512-9.136 8.886-17.535 17.797-25.196 26.717h-161.083v-52.538h395.405v52.538h-161.084zm24.107-192.296c0 33.736-27.608 61.211-61.538 60.716-33.036-.427-59.913-28.122-59.913-61.736v-25.29h121.451z"/></g></svg>