<svg id="Capa_1" enable-background="new 0 0 512 512" height="512" viewBox="0 0 512 512" width="512" xmlns="http://www.w3.org/2000/svg"><g><path d="m131.243 208.118c4.142 0 7.5-3.358 7.5-7.5v-13c0-4.142-3.358-7.5-7.5-7.5s-7.5 3.358-7.5 7.5v13c0 4.142 3.358 7.5 7.5 7.5z"/><path d="m256.141 208.118c4.142 0 7.5-3.358 7.5-7.5v-13c0-4.142-3.358-7.5-7.5-7.5s-7.5 3.358-7.5 7.5v13c0 4.142 3.358 7.5 7.5 7.5z"/><path d="m215.81 204.189c2.722-3.123 2.396-7.86-.726-10.582s-7.86-2.397-10.582.726c-5.728 6.571-15.899 6.564-21.621 0-2.722-3.124-7.459-3.448-10.582-.726s-3.448 7.459-.726 10.582c11.706 13.431 32.544 13.417 44.237 0z"/><path d="m29.428 486.172h453.145c16.227 0 29.428-13.201 29.428-29.428v-29.645c0-16.227-13.201-29.428-29.428-29.428h-11.915c1.013-1.757 1.877-3.624 2.532-5.608l33.345-101.157c3.477-10.547 1.738-21.756-4.771-30.753-6.508-8.998-16.609-14.158-27.714-14.158-12.79 0-106.013 0-121.145 0-17.935 0-33.757 11.444-39.372 28.477l-25.777 78.199h-22.09c-6.141-17.69-15.444-33.747-27.748-47.899 39.235-22.914 66.037-65.286 66.037-114.86 0-25.253-7.116-49.728-20.566-70.954v-48.652c0-24.525-19.953-44.478-44.478-44.478h-67.738c-30.529 0-60.35 8.488-86.239 24.546-3.52 2.184-4.604 6.807-2.42 10.327s6.808 4.603 10.327 2.42c23.513-14.584 50.6-22.293 78.333-22.293h67.738c16.254 0 29.478 13.224 29.478 29.478v43.321c-175.622.022-167.089-.065-170.073.089-20.587 1.05-39.651 12.477-50.116 30.496-6.464-.344-13.546.785-20 3.488 7.575-25.476 22.003-48.819 41.716-67.096 3.038-2.816 3.217-7.562.401-10.599-2.816-3.038-7.562-3.218-10.599-.401-26.467 24.539-44.269 57.393-50.287 92.694-5.831 7.68-9.3 17.248-9.3 27.613 0 25.34 20.747 46.082 46.377 45.748 9.024 24.538 25.092 45.706 45.762 61.021-10.569 10.487-19.423 22.387-26.38 35.489-10.511 19.795-16.314 41.802-17.324 65.502h-19.139c-16.227 0-29.428 13.201-29.428 29.428v29.645c0 16.226 13.201 29.428 29.428 29.428zm263.753-118.501c3.237 0 6.109-2.077 7.123-5.152l27.476-83.351c3.583-10.87 13.68-18.173 25.125-18.173h12.453l-14.215 43.123c-1.297 3.934.841 8.174 4.775 9.471 3.933 1.295 8.174-.84 9.471-4.775l15.763-47.819h92.897c6.235 0 11.906 2.897 15.56 7.949s4.63 11.345 2.678 17.266l-33.345 101.156c-2.032 6.164-7.757 10.305-14.246 10.305h-109.254c3.253-5.649 2.98-8.555 20.589-60.466 1.297-3.934-.841-8.174-4.775-9.471-3.933-1.295-8.174.84-9.471 4.775l-18.083 54.858c-2.032 6.164-7.757 10.305-14.246 10.305h-62.761c-8.471 0-15.294-6.998-14.99-15.553.283-7.966 7.25-14.447 15.529-14.447 14.272-.001 32.611-.001 45.947-.001zm-278.05-177.76c0-15.579 11.662-28.554 26.816-30.497-4.434 16.941-5.016 39.795-.018 61.002-15.096-1.949-26.798-14.886-26.798-30.505zm40.871-24.776c4.484-20.965 23.458-36.508 45.463-36.508h170.301c11.258 18.434 17.189 39.536 17.189 61.284 0 46.138-26.487 86.648-66.456 106.037-35.511 17.222-78.975 15.863-114.205-6.532-.239-.152-.49-.267-.74-.389-42.176-27.158-61.634-76.835-51.552-123.892zm49.124 139.966c37.019 21.297 81.603 22.927 118.958 6.685 11.105 12.08 19.686 25.783 25.607 40.884h-2.457c-23.006 0-38.276 24.828-26.537 45h-157.136c2.075-45.086 22.668-74.697 41.565-92.569zm-90.126 121.998c0-7.956 6.472-14.428 14.428-14.428h453.145c7.956 0 14.428 6.472 14.428 14.428v29.645c0 7.956-6.472 14.428-14.428 14.428h-453.145c-7.956 0-14.428-6.472-14.428-14.428z"/></g></svg>