<svg id="Capa_1" enable-background="new 0 0 512 512" height="512" viewBox="0 0 512 512" width="512" xmlns="http://www.w3.org/2000/svg"><g><path d="m187.532 177.491c4.142 0 7.5-3.358 7.5-7.5 0-3.859 3.14-6.999 6.999-6.999s6.999 3.14 6.999 6.999c0 4.142 3.358 7.5 7.5 7.5s7.5-3.358 7.5-7.5c0-12.13-9.869-21.998-21.999-21.998s-21.998 9.868-21.998 21.998c-.001 4.142 3.356 7.5 7.499 7.5z"/><path d="m317.135 177.491c4.142 0 7.5-3.358 7.5-7.5 0-3.859 3.14-6.999 6.999-6.999s6.999 3.14 6.999 6.999c0 4.142 3.358 7.5 7.5 7.5s7.5-3.358 7.5-7.5c0-12.13-9.869-21.998-21.999-21.998s-21.998 9.868-21.998 21.998c-.001 4.142 3.357 7.5 7.499 7.5z"/><path d="m287.866 191.864c2.721-3.123 2.396-7.86-.727-10.582s-7.86-2.396-10.582.727c-5.143 5.901-14.293 5.918-19.451 0-2.722-3.123-7.459-3.448-10.581-.727-3.123 2.721-3.448 7.459-.727 10.582 11.109 12.748 30.926 12.785 42.068 0z"/><path d="m114.928 110.119c-1.461 4.485-2.731 9.065-3.802 13.729-24.096 1.766-43.165 21.921-43.165 46.46 0 26.726 22.608 48.231 49.605 46.492 3.522 9.247 7.406 17.063 12.011 24.78-9.849.162-19.139 4.418-25.66 11.807-11.469 12.995-11.658 32.693-.438 45.82 6.995 8.184 14.736 15.959 23.008 23.109 3.134 2.708 7.87 2.365 10.578-.769 2.709-3.134 2.365-7.87-.769-10.579-7.703-6.659-14.908-13.895-21.414-21.507-6.393-7.481-6.272-18.722.282-26.148 7.915-8.969 22.31-8.813 30.127.18 9.258 10.848 19.859 20.336 31.491 28.269v46.397c-6.286-3.192-12.44-6.736-18.39-10.595-3.476-2.253-8.12-1.263-10.374 2.212-2.253 3.475-1.263 8.12 2.212 10.374 8.522 5.526 17.439 10.451 26.566 14.684.081 10.651 1.997 21.073 5.723 30.987 4.655 12.389 12.12 23.737 21.688 33.013v58.098c0 19.336 15.727 35.067 35.058 35.067 10.66 0 20.747-4.744 27.58-13.417 6.426 8.161 16.385 13.417 27.555 13.417 19.37 0 35.058-15.683 35.058-35.067 0-19.414 0-38.714 0-58.089 9.001-8.65 16.846-20.149 21.689-33.024 3.727-9.915 5.643-20.34 5.723-30.994 27.953-12.965 53.224-32.111 73.316-55.619 11.219-13.126 11.03-32.825-.439-45.819-6.521-7.388-15.846-11.658-25.659-11.808 4.598-7.704 8.483-15.518 12.011-24.779 26.99 1.739 49.605-19.76 49.605-46.492 0-24.539-19.071-44.695-43.168-46.46-8.686-37.877-30.757-71.066-62.65-93.956-3.365-2.415-8.051-1.645-10.466 1.72s-1.645 8.051 1.72 10.466c21.013 15.081 37.325 35.085 47.69 58.066-37.396-31.977-83.507-34.829-131.996 1.832-44.215-33.438-91.081-36.8-131.956-1.898 22.938-50.742 74.146-85.078 131.956-85.078 20.418 0 40.156 4.166 58.668 12.382 3.786 1.68 8.218-.026 9.897-3.812 1.681-3.786-.026-8.218-3.812-9.898-20.44-9.072-42.226-13.672-64.753-13.672-32.991 0-63.998 10.109-89.765 27.61-7.658-15.447-23.2-26.281-40.732-27.49-23.312-1.606-44.177 12.875-50.757 35.217-3.414 11.587-11.473 20.629-24.335 24.223-15.102 4.214-20.03 23.295-8.859 34.352 17.693 17.515 39.19 24.828 62.542 16.207zm147.198 7.214c2.747 2.214 6.666 2.214 9.413 0 30.613-24.673 65.157-36.33 99.856-17.865 21.318 11.359 34.735 29.927 37.934 34.681 21.794 121.67-110.441 216.37-221.014 147.262-4.008-3.025-14.667-8.556-31.906-27.989-28.89-34.061-39.489-78.138-32.073-119.279 31.831-47.446 84.837-59.476 137.79-16.81zm-70.346 232.65v-49.147c8.805 4.693 18.57 8.782 28.803 11.873.36 25.203 20.962 45.599 46.249 45.599 25.288 0 45.89-20.395 46.249-45.599 9.592-2.897 19.28-6.8 28.803-11.873v53.295c0 7.358-1.055 14.586-3.141 21.55h-143.823c-3.958-13.217-3.007-23.328-3.14-25.698zm105.998-33.458c-2.181 15.124-15.228 26.783-30.946 26.783-15.719 0-28.765-11.659-30.945-26.783 20.33 3.999 41.7 3.984 61.891 0zm-185.104-114.672c-16.549-.98-29.713-14.754-29.713-31.545 0-15.303 10.934-28.1 25.4-30.989-2.561 19.785-1.378 41.638 4.313 62.534zm126.59 295.147c-11.06 0-20.058-9.002-20.058-20.067v-27.6h40.125v27.6c.001 11.092-8.973 20.067-20.067 20.067zm75.192-20.067c0 11.103-8.987 20.067-20.058 20.067-11.065 0-20.067-9.002-20.067-20.067v-27.6h40.125zm5.443-69.724c-2.727 2.727-5.442 4.231-5.442 8.368v18.755h-40.125v-25.076c0-4.142-3.357-7.5-7.5-7.5-4.142 0-7.5 3.358-7.5 7.5v25.076h-40.125v-18.755c0-2.128-.904-4.156-2.487-5.579-6.184-5.557-11.414-12.116-15.446-19.317h131.112c-3.38 6.035-7.601 11.636-12.487 16.528zm98.601-143.896c6.554 7.426 6.676 18.667.282 26.148-17.172 20.091-38.403 36.768-61.898 48.699v-46.398c11.633-7.935 22.236-17.424 31.494-28.274 7.943-9.131 22.09-9.274 30.122-.175zm32.202-93.004c0 16.791-13.164 30.565-29.713 31.545 5.944-21.795 5.394-38.987 5.615-42.077 0-6.921-.501-14.202-1.301-20.457 14.465 2.889 25.399 15.686 25.399 30.989zm-385.424-96.302c18.041-5.038 29.888-18.128 34.69-34.432 4.577-15.54 19.107-25.607 35.334-24.489 13.151.907 24.7 9.617 29.479 21.749-16.953 14.058-31.001 31.604-41.002 51.671-21.556 15.142-42.017 13.379-60.841-5.254-2.992-2.961-1.666-8.127 2.34-9.245z"/></g></svg>