<svg id="Capa_1" enable-background="new 0 0 512 512" height="512" viewBox="0 0 512 512" width="512" xmlns="http://www.w3.org/2000/svg"><g><path d="m192.342 201.658c-4.142 0-7.5 3.358-7.5 7.5v9.709c0 4.142 3.358 7.5 7.5 7.5s7.5-3.358 7.5-7.5v-9.709c0-4.142-3.358-7.5-7.5-7.5z"/><path d="m256 205.237c-11.462 0-20.788 10.035-20.788 22.369s9.326 22.369 20.788 22.369 20.788-10.035 20.788-22.369-9.326-22.369-20.788-22.369zm0 29.739c-3.138 0-5.788-3.375-5.788-7.369s2.65-7.369 5.788-7.369c3.137 0 5.788 3.375 5.788 7.369s-2.651 7.369-5.788 7.369z"/><path d="m319.657 201.658c-4.142 0-7.5 3.358-7.5 7.5v9.709c0 4.142 3.358 7.5 7.5 7.5s7.5-3.358 7.5-7.5v-9.709c0-4.142-3.358-7.5-7.5-7.5z"/><path d="m263.449 417.638c-4.178-4.063-10.721-4.063-14.899 0-25.936 25.224-36.493 52.417-28.239 72.743 5.498 13.537 18.839 21.619 35.689 21.619s30.191-8.082 35.689-21.62c8.253-20.325-2.303-47.519-28.24-72.742zm14.342 67.099c-3.211 7.908-10.95 12.263-21.791 12.263s-18.58-4.355-21.791-12.263c-4.349-10.709-.729-30.15 21.791-53.337 22.519 23.187 26.14 42.628 21.791 53.337z"/><path d="m61.282 137.585c0 4.142 3.358 7.5 7.5 7.5s7.5-3.358 7.5-7.5v-34.728h359.436v83.154c0 4.142 3.358 7.5 7.5 7.5s7.5-3.358 7.5-7.5c0-13.813 0-113.962 0-120.279 0-36.245-29.483-65.732-65.722-65.732h-257.982c-36.245 0-65.732 29.487-65.732 65.732zm65.732-122.585h257.981c27.968 0 50.722 22.758 50.722 50.732v22.125h-359.435v-22.125c0-27.974 22.758-50.732 50.732-50.732z"/><path d="m384.996 374.803c36.239 0 65.722-29.483 65.722-65.722 0-10.708 0-82.348 0-93.07 0-4.142-3.358-7.5-7.5-7.5s-7.5 3.358-7.5 7.5v55.935h-30.052c20.189-34.098-5.165-77.515-44.981-76.378-9.654-38.456-52.294-58.86-88.356-42.043-27.294-33.116-77.57-35.976-108.372-5.174-12.757 12.757-20.328 29.835-21.346 47.723-35.539 5.156-54.575 44.968-36.276 75.873h-30.053v-104.362c0-4.142-3.358-7.5-7.5-7.5s-7.5 3.358-7.5 7.5v141.496c0 36.239 29.487 65.722 65.732 65.722h85.642c7.2 16.825 23.916 28.645 43.344 28.645s36.144-11.82 43.344-28.645zm-234.942-164.252c4.267 0 7.678-3.56 7.493-7.825-.706-16.296 5.497-32.25 17.017-43.77 25.722-25.722 68.677-21.99 89.432 8.427 2.246 3.292 6.675 4.252 10.082 2.188 29.601-17.937 68.551.439 73.098 35.11.555 4.23 4.527 7.149 8.729 6.413 22.039-3.856 41.813 13.187 41.813 35.083 0 9.801-3.987 19.054-11.022 25.768h-261.39c-22.976-21.924-7.777-61.394 24.748-61.394zm58.953 149.252h-81.993c-27.974 0-50.732-22.754-50.732-50.722v-22.135h359.436v22.135c0 27.968-22.754 50.722-50.722 50.722h-82.003c.053-.707.129-2.291.129-3.477 0-25.983-21.139-47.122-47.122-47.122s-47.122 21.139-47.122 47.122c0 1.201.079 2.812.129 3.477zm46.993 28.645c-17.943 0-32.122-14.675-32.122-32.122 0-17.712 14.41-32.122 32.122-32.122 17.72 0 32.122 14.427 32.122 32.122 0 17.46-14.189 32.122-32.122 32.122z"/></g></svg>