<svg id="Capa_1" enable-background="new 0 0 512 512" height="512" viewBox="0 0 512 512" width="512" xmlns="http://www.w3.org/2000/svg"><g><path d="m290.048 345.353c22.048 0 39.986-17.938 39.986-39.986s-17.938-39.986-39.986-39.986-39.986 17.938-39.986 39.986 17.938 39.986 39.986 39.986zm0-64.972c13.777 0 24.986 11.209 24.986 24.986s-11.209 24.986-24.986 24.986-24.986-11.208-24.986-24.986 11.209-24.986 24.986-24.986z"/><path d="m136.374 159.688c-18.664 0-33.847 15.184-33.847 33.847s15.184 33.847 33.847 33.847 33.847-15.184 33.847-33.847-15.184-33.847-33.847-33.847zm0 52.694c-10.393 0-18.847-8.455-18.847-18.847s8.455-18.847 18.847-18.847 18.847 8.455 18.847 18.847-8.455 18.847-18.847 18.847z"/><path d="m509.283 129.701v-48.655c0-4.142-3.358-7.5-7.5-7.5h-61.354v-10.51c15.246-2.285 26.977-15.469 26.977-31.342 0-17.476-14.218-31.694-31.695-31.694h-54.219c-17.476 0-31.694 14.218-31.694 31.694 0 15.873 11.73 29.056 26.977 31.342v10.51h-78.336c-17.549 0-31.826 14.278-31.826 31.827v39.417c-10.801 3.233-18.697 13.258-18.697 25.097 0 14.445 11.752 26.197 26.197 26.197h48.654c14.445 0 26.197-11.752 26.197-26.197 0-11.839-7.896-21.863-18.697-25.097v-7.59h25.724c1.514 27.708 24.533 49.782 52.612 49.782s51.098-22.075 52.611-49.782h40.569c4.142.001 7.5-3.357 7.5-7.499zm-144.485-98.007c0-9.205 7.489-16.694 16.694-16.694h54.219c9.205 0 16.694 7.489 16.694 16.694s-7.489 16.694-16.694 16.694h-54.219c-9.204.001-16.694-7.489-16.694-16.694zm-30.835 138.194c0 6.174-5.023 11.197-11.197 11.197h-48.654c-6.174 0-11.197-5.023-11.197-11.197s5.023-11.197 11.197-11.197h48.654c6.174 0 11.197 5.023 11.197 11.197zm160.32-47.687h-40.721c-4.443 0-7.908 3.842-7.462 8.255 2.245 22.188-15.184 41.527-37.498 41.527-22.21 0-39.746-19.221-37.499-41.529.446-4.419-3.028-8.253-7.462-8.253h-40.875c-4.142 0-7.5 3.358-7.5 7.5v13.99h-33.654v-38.317c0-9.278 7.548-16.827 16.826-16.827h85.836c4.142 0 7.5-3.358 7.5-7.5v-17.658h33.654v17.658c0 4.142 3.358 7.5 7.5 7.5h61.354v33.654z"/><path d="m450.189 342.743c0-16.877-13.731-30.608-30.608-30.608h-37.116c-3.483-5.498-7.823-10.496-12.971-14.801 1.693-18.884-4.913-37.168-18.48-50.736-13.57-13.57-31.854-20.172-50.736-18.48-12.154-14.531-29.742-22.776-48.917-22.776-19.176 0-36.765 8.247-48.919 22.78-17.406-1.529-34.62 4.082-47.813 15.733-13.518 11.938-21.287 28.739-21.635 46.515l-21.766 21.766h-29.672c-4.142 0-7.5 3.358-7.5 7.5s3.358 7.5 7.5 7.5h132.68c8.605 0 15.608 6.999 15.608 15.608 0 8.607-7.001 15.608-15.608 15.608-.003 0-.006 0-.01 0h-33.588c-4.142 0-7.5 3.358-7.5 7.5s3.358 7.5 7.5 7.5h33.598c8.606 0 15.608 7.001 15.608 15.608 0 8.605-7 15.608-15.608 15.608-.003 0-.006 0-.01 0h-33.588c-4.142 0-7.5 3.358-7.5 7.5s3.358 7.5 7.5 7.5h33.598.005c8.586.002 15.603 6.986 15.603 15.608 0 8.607-7.001 15.608-15.608 15.608-.003 0-.006 0-.01 0h-33.588c-4.142 0-7.5 3.358-7.5 7.5s3.358 7.5 7.5 7.5h33.598c.037 0 .073.005.11.005 8.456.058 15.47 7.002 15.497 15.562 0 .013.001.027.001.041 0 .038-.005.075-.005.113-.059 8.533-7.077 15.495-15.604 15.495h-196.518v-169.865h33.839c4.142 0 7.5-3.358 7.5-7.5s-3.358-7.5-7.5-7.5h-41.339c-4.142 0-7.5 3.358-7.5 7.5v184.865c0 4.142 3.358 7.5 7.5 7.5h326.721c4.142 0 7.5-3.358 7.5-7.5s-3.358-7.5-7.5-7.5h-96.387c1.903-3.197 3.132-6.549 3.811-10.228 21.245 2.387 42.16-5.981 55.914-22.39 39.363 3.545 72.809-29.626 69.222-69.218 6.915-5.779 12.831-13.246 16.829-21.812h33.255.005c8.604.003 15.604 7.003 15.604 15.608 0 8.606-7.002 15.608-15.608 15.608-.003 0-.006 0-.01 0h-33.588c-4.142 0-7.5 3.358-7.5 7.5s3.358 7.5 7.5 7.5h33.598.005c8.604.003 15.604 7.003 15.604 15.608 0 8.606-7.002 15.608-15.608 15.608h-33.598c-4.142 0-7.5 3.358-7.5 7.5s3.358 7.5 7.5 7.5h33.598c8.606 0 15.608 7.001 15.608 15.608s-7.004 15.608-15.611 15.608h-52.643c-4.142 0-7.5 3.358-7.5 7.5s3.358 7.5 7.5 7.5h52.643c16.877 0 30.608-13.73 30.608-30.608 0-9.215-4.093-17.492-10.557-23.108 6.464-5.616 10.557-13.893 10.557-23.108s-4.093-17.492-10.557-23.108c6.464-5.616 10.557-13.893 10.557-23.108s-4.093-17.492-10.557-23.108c6.465-5.618 10.557-13.894 10.557-23.109zm-292.614-55.742c6.1-6.1 15.973-6.101 22.074 0 6.099 6.099 6.1 15.972 0 22.073l-3.06 3.06h-44.147zm56.66 25.134h-18.438c5.906-11.33 4.254-25.943-5.542-35.74-10.449-10.45-26.473-11.729-38.261-4.074 2.824-6.487 7.077-12.377 12.565-17.224 10.945-9.666 25.509-13.903 39.966-11.616.018.003.082.012.099.015 2.77.417 5.538-.743 7.184-3.007 9.307-12.805 23.724-20.149 39.554-20.149s30.247 7.344 39.554 20.149c1.646 2.264 4.414 3.424 7.184 3.007.018-.003.081-.012.099-.015 15.634-2.471 31.018 2.532 42.209 13.723s16.193 26.576 13.714 42.263l-.007.045c-.417 2.768.743 5.537 3.007 7.183 6.046 4.395 10.856 9.938 14.269 16.222.04.083.07.169.113.25 11.411 21.366 5.312 48.311-14.37 62.626-2.375 1.727-3.419 4.624-3.004 7.292.463 2.931.664 5.854.61 8.741-.197 10.588-3.812 20.71-10.428 29.082-10.847 13.728-27.979 20.974-46.2 18.095-2.762-.424-5.541.728-7.196 3.005-10.696 14.701-28.775 22.648-47.71 19.448-1.767-5.219-4.86-9.745-8.866-13.22 6.541-5.711 10.504-14.025 10.504-23.062 0-9.215-4.093-17.492-10.557-23.108 6.464-5.616 10.557-13.893 10.557-23.108s-4.093-17.492-10.557-23.108c6.55-5.691 10.557-14.002 10.557-23.108 0-16.834-13.693-30.607-30.609-30.607zm205.346 46.216c-.003 0-.006 0-.01 0h-28.447c.743-3.938 1.146-7.979 1.146-12.102 0-6.616-1.004-13.035-2.886-19.115h30.198c8.606 0 15.608 7.001 15.608 15.608s-7.002 15.609-15.609 15.609z"/></g></svg>