<svg id="Capa_1" enable-background="new 0 0 512 512" height="512" viewBox="0 0 512 512" width="512" xmlns="http://www.w3.org/2000/svg"><g><path d="m338.324 413.469c-4.142 0-7.5 3.358-7.5 7.5v9.701c0 4.142 3.358 7.5 7.5 7.5s7.5-3.358 7.5-7.5v-9.701c0-4.143-3.358-7.5-7.5-7.5z"/><path d="m439.294 413.469c-4.142 0-7.5 3.358-7.5 7.5v9.701c0 4.142 3.358 7.5 7.5 7.5s7.5-3.358 7.5-7.5v-9.701c0-4.143-3.357-7.5-7.5-7.5z"/><path d="m407.047 424.727c-3.123-2.722-7.861-2.396-10.582.726-1.934 2.219-4.725 3.491-7.656 3.491-2.932 0-5.723-1.272-7.657-3.491-2.722-3.123-7.459-3.448-10.582-.726-3.123 2.721-3.448 7.459-.726 10.582 4.783 5.488 11.695 8.636 18.964 8.636s14.181-3.147 18.964-8.636c2.723-3.123 2.398-7.861-.725-10.582z"/><path d="m482.122 309.553h-28.139v-73.167c29.835-19.694 9.424-73.324-33.056-73.324h-65.703v-3.062c0-19.273-12.745-35.625-30.249-41.071-4.273-13.915-10.1-27.255-17.394-39.817 10.794-4.643 18.373-15.379 18.373-27.855 0-26.531-21.584-48.115-48.115-48.115h-140.026c-4.142 0-7.5 3.358-7.5 7.5s3.358 7.5 7.5 7.5h140.025c18.26 0 33.115 14.855 33.115 33.115 0 8.44-6.867 15.308-15.307 15.308h-257.888c-8.44 0-15.308-6.867-15.308-15.308 0-18.26 14.855-33.115 33.116-33.115h52.247c4.142 0 7.5-3.358 7.5-7.5s-3.358-7.5-7.5-7.5h-52.247c-26.531 0-48.116 21.584-48.116 48.115 0 12.474 7.576 23.208 18.367 27.852-16.92 29.128-25.817 62.062-25.817 95.905v260.738c0 40.462 32.878 73.106 73.106 73.106h362.907c29.56 0 53.608-24.049 53.608-53.608v-71.233c12.857-3.337 22.379-15.04 22.379-28.925v-15.66c0-16.475-13.403-29.879-29.878-29.879zm-118.435 0c1.171-12.831 11.992-22.917 25.123-22.917s23.952 10.085 25.123 22.917zm-23.463-149.552v3.062h-56.004v-3.062c0-17.361 15.792-30.774 33.197-27.511 12.965 2.443 22.807 13.846 22.807 27.511zm-325.224 15.013c0-33.168 9.27-65.387 26.85-93.448h249.697c7.015 11.197 12.732 23.118 17.069 35.582-16.933 1.416-31.285 12.739-36.901 28.429-2.39 6.693-2.469 11.313-2.496 17.485-71.373.049-68.996-.521-76.794 1.329-15.804 3.824-28.347 15.557-33.495 30.412h-143.93zm0 34.79h141.346c-.117 11.43 5.814 21.146 14.113 26.598v152.937h-155.459zm176.564 284.054h-118.458c-31.88 0-58.106-25.839-58.106-58.106v-31.413h155.459v43.319c0 17.413 7.484 34.355 21.105 46.2zm112.886 0c-77.862-.022-74.359.097-77.779-.274-23.136-2.496-41.211-22.138-41.211-45.926v-50.819-155.361c2.017.141-.447.048 69.188.076 4.142 0 7.5-3.358 7.5-7.5s-3.358-7.5-7.5-7.5h-66.983c-3.554 0-7.224-1.197-10.232-3.624-13.197-10.659-3.918-39.063 19.173-44.113 7.537-1.665 224.321-.755 224.321-.755 17.739 0 32.171 14.432 32.171 32.171 0 7.542-5.154 13.995-12.341 15.809-4.098 1.033 4.731.226-156.109.511-4.142 0-7.5 3.358-7.5 7.5s3.358 7.5 7.5 7.5c159.772-.028 152.31.066 154.335-.076v68.075h-10.016c-1.203-21.11-18.752-37.917-40.157-37.917s-38.954 16.807-40.157 37.917h-53.155c-8.238 0-15.707 3.351-21.117 8.761s-8.761 12.88-8.761 21.117v15.66c0 14.034 9.827 25.787 22.379 28.925.552 79.022-4.674 89.516 16.451 109.843zm131.563 0h-94.407c-21.289 0-38.608-17.32-38.608-38.608v-70.28h171.624v70.279c0 21.289-17.32 38.609-38.609 38.609zm60.987-138.766c0 8.202-6.672 14.876-14.874 14.879-.002 0-.003 0-.005 0h-186.623c-8.204 0-14.878-6.674-14.878-14.878v-15.66c0-8.204 6.674-14.878 14.878-14.878h186.624c8.204 0 14.878 6.674 14.878 14.878z"/></g></svg>